<?xml version="1.0" encoding="UTF-8"?>
<svg fill="white" id="Layer_2" data-name="Layer 2" xmlns="http://www.w3.org/2000/svg" viewBox="0 0 111.06 110.65">
  <g id="Contents">
    <g>
      <path d="M40.29,2.01c-.86,.88-1.72,1.7-2.45,2.64-.75,.96-1.45,1.96-2.03,3.03-.2,.37-.47,.59-.84,.76-9.86,4.39-17.64,11.18-23.27,20.39-3.97,6.5-6.35,13.55-7.12,21.13-1.09,10.72,.88,20.85,6.16,30.24,6.37,11.34,15.76,19.19,28.02,23.53,4.49,1.59,9.13,2.53,13.9,2.68,2.45,.08,4.87-.19,7.19-1.03,5.11-1.84,7.9-5.62,8.67-10.86,.86-5.85-1.14-10.81-5.13-15.06-2.82-3-5.99-5.62-9.18-8.22-3.28-2.69-6.58-5.35-9.47-8.48-2.54-2.75-4.82-5.69-6.1-9.25-2.16-6.06-2.14-12.05,.93-17.86,.37-.7,.38-.69,.85-.1,1.11,1.4,2.27,2.75,3.54,4.01,.23,.23,.43,.44,.38,.84-.54,4.34,.75,8.09,3.6,11.37,2.53,2.91,5.47,5.35,8.47,7.73,3.44,2.73,6.95,5.38,10.13,8.41,3.52,3.35,6.79,6.96,8.37,11.65,2.94,8.68,1.75,16.76-4.37,23.77-3.33,3.82-7.79,5.8-12.72,6.77-5.24,1.03-10.41,.48-15.49-.85-17.97-4.71-30.71-15.63-38.11-32.65C.78,68.62-.46,60.18,.15,51.49c.77-11.11,4.54-21.11,11.32-29.92C18.86,11.95,28.45,5.45,40.09,1.99c.04-.01,.08,0,.2,.02Z"/>
      <path d="M73.9,72.46c-1.54-2.04-3.16-3.94-4.97-5.67-.19-.19-.22-.41-.22-.65,.06-4.86-1.89-8.89-5.11-12.4-2.92-3.18-6.26-5.91-9.59-8.63-3.28-2.68-6.58-5.35-9.44-8.5-2.95-3.25-5.5-6.77-6.57-11.11-1.43-5.76-1.16-11.36,2.08-16.54,2.87-4.6,7.18-7.14,12.37-8.32,4.28-.97,8.55-.73,12.82,.05,9.29,1.69,17.66,5.44,25,11.39,9.47,7.67,15.91,17.38,18.92,29.19,3.77,14.77,1.92,28.89-5.78,42.08-6.98,11.96-17.17,20.14-30.28,24.63-.47,.16-.94,.31-1.59,.53,.21-.23,.28-.34,.38-.42,1.91-1.68,3.53-3.6,4.85-5.77,.2-.32,.42-.57,.78-.75,9.3-4.49,16.64-11.15,21.95-20,5.3-8.84,7.71-18.45,7.16-28.73-.72-13.58-6.04-25.14-15.86-34.57-7.5-7.2-16.45-11.61-26.68-13.41-3.52-.62-7.04-.87-10.54,.1-3.29,.9-6.12,2.49-7.95,5.5-1.74,2.86-1.79,5.92-1.03,9.08,.63,2.66,2.08,4.85,3.87,6.85,2.65,2.96,5.74,5.44,8.85,7.89,3.81,3,7.65,5.96,11.02,9.47,2.81,2.92,5.29,6.08,6.66,9.95,2.17,6.16,1.95,12.25-.73,18.22-.06,.14-.14,.27-.21,.41-.02,.03-.06,.06-.14,.15Z"/>
      <path d="M34.63,75.39c.07-3.13,.28-6.25,.54-9.37,.03-.32,.13-.64,.24-.94,.13-.38,.45-.43,.8-.38,.35,.05,.48,.28,.49,.59,.04,.85,.03,1.7,.1,2.54,.48,5.84,3.4,9.91,8.94,11.89,4.62,1.65,9.32,1.76,13.98,.05,.34-.12,.52-.04,.73,.19,.7,.78,1.38,1.56,2.1,2.32,.37,.38,.25,.53-.19,.7-2.47,.94-5.03,1.54-7.66,1.79-5.02,.49-9.99,.2-14.84-1.28-1.29-.39-2.53-.91-3.75-1.48-1-.47-1.49-1.22-1.49-2.31,0-1.43,0-2.87,0-4.3Z"/>
      <path d="M52.15,26.61c1.6-.43,3.14-.65,4.7-.78,4.78-.38,9.5,.1,14.16,1.2,.95,.23,1.93,.29,2.91,.34,.52,.02,.82,.27,.77,.82-.37,4.07-.39,8.16-.47,12.24,0,.39-.03,.78-.17,1.15-.11,.28-.26,.53-.59,.52-.34,0-.54-.23-.66-.54-.2-.56-.18-1.16-.28-1.73-.19-1.05-.43-2.08-.73-3.1-.85-2.87-2.96-4.53-5.55-5.67-3.13-1.38-6.45-1.7-9.82-1.49-.65,.04-1.16-.05-1.64-.52-.83-.81-1.77-1.51-2.62-2.44Z"/>
    </g>
  </g>
</svg>